<svg data-v-29081953="" xmlns="http://www.w3.org/2000/svg" viewBox="0 0 300 300"><!----><defs data-v-29081953=""><!----></defs><rect data-v-29081953="" fill="transparent" x="0" y="0" width="300px" height="300px" class="logo-background-square"></rect><defs data-v-29081953=""><!----></defs><g data-v-29081953="" id="84afdb02-0e4d-464c-8425-ea0ce5ccbc1d" fill="#000000" transform="matrix(3.5486878219716553,0,0,3.5486878219716553,121.10436631345178,114.81476038052274)"><path d="M8.65 7.07L8.65 7.07L8.65 7.07Q8.46 6.55 8.04 6.19L8.04 6.19L8.04 6.19Q7.62 5.82 7.08 5.62L7.08 5.62L7.08 5.62Q6.54 5.42 5.94 5.37L5.94 5.37L5.94 5.37Q5.33 5.32 4.80 5.43L4.80 5.43L4.80 5.43Q4.23 5.56 3.77 5.86L3.77 5.86L3.77 5.86Q3.32 6.16 3.00 6.59L3.00 6.59L3.00 6.59Q2.69 7.01 2.52 7.53L2.52 7.53L2.52 7.53Q2.35 8.05 2.35 8.61L2.35 8.61L2.35 8.61Q2.35 9.66 2.80 10.40L2.80 10.40L2.80 10.40Q3.25 11.13 3.93 11.52L3.93 11.52L3.93 11.52Q4.62 11.91 5.43 11.94L5.43 11.94L5.43 11.94Q6.24 11.97 6.97 11.63L6.97 11.63L6.97 11.63Q7.60 11.35 8.39 10.54L8.39 10.54L9.59 11.84L9.59 11.84Q9.11 12.33 8.67 12.68L8.67 12.68L8.67 12.68Q8.22 13.03 7.74 13.26L7.74 13.26L7.74 13.26Q7.25 13.48 6.71 13.59L6.71 13.59L6.71 13.59Q6.17 13.71 5.54 13.71L5.54 13.71L5.54 13.71Q4.41 13.71 3.54 13.34L3.54 13.34L3.54 13.34Q2.67 12.98 2.06 12.37L2.06 12.37L2.06 12.37Q1.44 11.76 1.08 10.97L1.08 10.97L1.08 10.97Q0.73 10.18 0.62 9.32L0.62 9.32L0.62 9.32Q0.50 8.47 0.66 7.62L0.66 7.62L0.66 7.62Q0.81 6.78 1.22 6.05L1.22 6.05L1.22 6.05Q1.61 5.36 2.11 4.89L2.11 4.89L2.11 4.89Q2.60 4.42 3.19 4.14L3.19 4.14L3.19 4.14Q3.77 3.85 4.42 3.72L4.42 3.72L4.42 3.72Q5.07 3.60 5.77 3.58L5.77 3.58L5.77 3.58Q6.26 3.58 6.80 3.68L6.80 3.68L6.80 3.68Q7.34 3.77 7.82 3.96L7.82 3.96L7.82 3.96Q8.30 4.14 8.68 4.44L8.68 4.44L8.68 4.44Q9.06 4.73 9.21 5.12L9.21 5.12L9.21 5.12Q9.37 5.52 9.25 6.00L9.25 6.00L9.25 6.00Q9.14 6.48 8.65 7.07ZM14.36 6.10L14.36 6.10L14.36 6.10Q15.47 6.10 16.33 6.64L16.33 6.64L16.33 6.64Q17.19 7.17 17.68 7.99L17.68 7.99L17.68 7.99Q18.17 8.82 18.21 9.83L18.21 9.83L18.21 9.83Q18.24 10.84 17.70 11.80L17.70 11.80L17.70 11.80Q17.23 12.60 16.49 13.08L16.49 13.08L16.49 13.08Q15.75 13.55 14.91 13.67L14.91 13.67L14.91 13.67Q14.07 13.79 13.22 13.53L13.22 13.53L13.22 13.53Q12.38 13.27 11.70 12.60L11.70 12.60L11.70 12.60Q10.95 11.83 10.70 10.82L10.70 10.82L10.70 10.82Q10.44 9.81 10.74 8.81L10.74 8.81L10.74 8.81Q10.86 8.40 11.15 8.13L11.15 8.13L11.15 8.13Q11.44 7.87 11.80 7.74L11.80 7.74L11.80 7.74Q12.17 7.62 12.56 7.63L12.56 7.63L12.56 7.63Q12.95 7.64 13.29 7.79L13.29 7.79L13.29 7.79Q13.62 7.94 13.85 8.21L13.85 8.21L13.85 8.21Q14.08 8.48 14.13 8.88L14.13 8.88L14.13 8.88Q13.92 8.72 13.62 8.71L13.62 8.71L13.62 8.71Q13.33 8.71 13.05 8.84L13.05 8.84L13.05 8.84Q12.78 8.97 12.59 9.25L12.59 9.25L12.59 9.25Q12.40 9.52 12.40 9.93L12.40 9.93L12.40 9.93Q12.40 10.63 12.70 11.09L12.70 11.09L12.70 11.09Q12.99 11.55 13.43 11.78L13.43 11.78L13.43 11.78Q13.87 12.01 14.39 12.01L14.39 12.01L14.39 12.01Q14.90 12.01 15.34 11.77L15.34 11.77L15.34 11.77Q15.78 11.54 16.07 11.07L16.07 11.07L16.07 11.07Q16.37 10.60 16.37 9.90L16.37 9.90L16.37 9.90Q16.37 9.35 16.17 8.93L16.17 8.93L16.17 8.93Q15.97 8.51 15.64 8.24L15.64 8.24L15.64 8.24Q15.32 7.97 14.88 7.86L14.88 7.86L14.88 7.86Q14.45 7.76 13.96 7.85L13.96 7.85L13.96 7.85Q13.75 7.60 13.45 7.46L13.45 7.46L13.45 7.46Q13.15 7.31 12.80 7.26L12.80 7.26L12.80 7.26Q12.45 7.21 12.10 7.27L12.10 7.27L12.10 7.27Q11.75 7.34 11.44 7.52L11.44 7.52L11.44 7.52Q12.00 6.85 12.74 6.48L12.74 6.48L12.74 6.48Q13.48 6.10 14.36 6.10ZM21.15 6.29L21.15 7.11L21.15 7.11Q21.27 6.86 21.49 6.68L21.49 6.68L21.49 6.68Q21.71 6.50 21.99 6.38L21.99 6.38L21.99 6.38Q22.27 6.26 22.57 6.19L22.57 6.19L22.57 6.19Q22.86 6.12 23.11 6.10L23.11 6.10L23.11 6.10Q23.65 6.06 24.17 6.24L24.17 6.24L24.17 6.24Q24.70 6.41 25.12 6.85L25.12 6.85L25.12 6.85Q25.24 6.99 25.35 7.13L25.35 7.13L25.35 7.13Q25.45 7.28 25.52 7.46L25.52 7.46L25.52 7.46Q25.56 7.15 25.77 6.91L25.77 6.91L25.77 6.91Q25.98 6.66 26.29 6.49L26.29 6.49L26.29 6.49Q26.59 6.31 26.94 6.22L26.94 6.22L26.94 6.22Q27.29 6.12 27.62 6.10L27.62 6.10L27.62 6.10Q28.17 6.06 28.69 6.24L28.69 6.24L28.69 6.24Q29.22 6.41 29.67 6.85L29.67 6.85L29.67 6.85Q30.30 7.50 30.30 8.74L30.30 8.74L30.30 13.52L28.48 13.52L28.48 13.52Q28.48 13.29 28.48 12.88L28.48 12.88L28.48 12.88Q28.48 12.47 28.47 11.99L28.47 11.99L28.47 11.99Q28.46 11.51 28.46 10.99L28.46 10.99L28.46 10.99Q28.46 10.47 28.45 10.01L28.45 10.01L28.45 10.01Q28.43 9.55 28.41 9.18L28.41 9.18L28.41 9.18Q28.39 8.82 28.36 8.65L28.36 8.65L28.36 8.65Q28.21 7.74 27.34 7.70L27.34 7.70L27.34 7.70Q26.85 7.69 26.52 7.98L26.52 7.98L26.52 7.98Q26.19 8.27 26.21 8.69L26.21 8.69L26.21 8.69Q26.08 8.65 25.96 8.55L25.96 8.55L25.96 8.55Q25.83 8.44 25.73 8.30L25.73 8.30L25.73 8.30Q25.75 8.41 25.75 8.52L25.75 8.52L25.75 8.52Q25.75 8.62 25.75 8.74L25.75 8.74L25.75 13.52L23.95 13.52L23.95 13.52Q23.95 13.29 23.96 12.88L23.96 12.88L23.96 12.88Q23.97 12.47 23.97 11.99L23.97 11.99L23.97 11.99Q23.97 11.51 23.97 10.99L23.97 10.99L23.97 10.99Q23.97 10.47 23.95 10.01L23.95 10.01L23.95 10.01Q23.94 9.55 23.91 9.18L23.91 9.18L23.91 9.18Q23.88 8.82 23.84 8.65L23.84 8.65L23.84 8.65Q23.73 8.20 23.42 7.98L23.42 7.98L23.42 7.98Q23.11 7.76 22.75 7.76L22.75 7.76L22.75 7.76Q22.26 7.76 21.99 8.02L21.99 8.02L21.99 8.02Q21.73 8.27 21.73 8.69L21.73 8.69L21.73 8.69Q21.56 8.64 21.39 8.46L21.39 8.46L21.39 8.46Q21.22 8.29 21.15 8.09L21.15 8.09L21.15 13.52L19.33 13.52L19.33 6.29L21.15 6.29ZM33.50 6.29L33.50 7.07L33.50 7.07Q34.02 6.55 34.64 6.31L34.64 6.31L34.64 6.31Q35.27 6.08 35.90 6.10L35.90 6.10L35.90 6.10Q36.53 6.13 37.11 6.40L37.11 6.40L37.11 6.40Q37.70 6.66 38.15 7.15L38.15 7.15L38.15 7.15Q38.60 7.64 38.87 8.34L38.87 8.34L38.87 8.34Q39.14 9.03 39.14 9.90L39.14 9.90L39.14 9.90Q39.14 10.74 38.85 11.44L38.85 11.44L38.85 11.44Q38.56 12.14 38.07 12.64L38.07 12.64L38.07 12.64Q37.58 13.15 36.94 13.42L36.94 13.42L36.94 13.42Q36.30 13.69 35.63 13.66L35.63 13.66L35.63 13.66Q34.93 13.64 34.52 13.36L34.52 13.36L34.52 13.36Q34.12 13.09 33.94 12.73L33.94 12.73L33.94 12.73Q33.75 12.38 33.75 12.01L33.75 12.01L33.75 12.01Q33.75 11.63 33.88 11.41L33.88 11.41L33.88 11.41Q34.01 11.58 34.18 11.70L34.18 11.70L34.18 11.70Q34.36 11.82 34.56 11.88L34.56 11.88L34.56 11.88Q34.76 11.94 34.98 11.97L34.98 11.97L34.98 11.97Q35.20 12.00 35.39 12.00L35.39 12.00L35.39 12.00Q36.04 12.00 36.47 11.68L36.47 11.68L36.47 11.68Q36.90 11.37 37.12 10.90L37.12 10.90L37.12 10.90Q37.34 10.43 37.34 9.88L37.34 9.88L37.34 9.88Q37.34 9.32 37.13 8.86L37.13 8.86L37.13 8.86Q36.92 8.39 36.48 8.07L36.48 8.07L36.48 8.07Q36.05 7.76 35.39 7.76L35.39 7.76L35.39 7.76Q34.85 7.76 34.48 8.01L34.48 8.01L34.48 8.01Q34.12 8.26 33.90 8.66L33.90 8.66L33.90 8.66Q33.68 9.06 33.59 9.55L33.59 9.55L33.59 9.55Q33.50 10.04 33.50 10.53L33.50 10.53L33.50 16.25L31.70 16.25L31.70 7.74L31.70 7.74Q31.70 7.38 31.84 7.10L31.84 7.10L31.84 7.10Q31.99 6.82 32.24 6.63L32.24 6.63L32.24 6.63Q32.49 6.44 32.82 6.36L32.82 6.36L32.82 6.36Q33.14 6.27 33.50 6.29L33.50 6.29Z"></path></g><defs data-v-29081953=""><linearGradient data-v-29081953="" gradientTransform="rotate(25)" id="03a3b955-df5d-4065-be51-41111f87cef2" x1="0%" y1="0%" x2="100%" y2="0%"><stop data-v-29081953="" offset="0%" stop-color="#6566CE" stop-opacity="1"></stop><stop data-v-29081953="" offset="100%" stop-color="#DBC1D0" stop-opacity="1"></stop></linearGradient></defs><g data-v-29081953="" id="6fa14934-1e2d-4a9c-917d-d817807a7001" stroke="none" fill="url(#03a3b955-df5d-4065-be51-41111f87cef2)" transform="matrix(0.9238741433244712,0,0,0.9238741433244712,34.27198004706577,108.88760062206103)"><path d="M49.8 57.3L46 68.2V68H15.7l16.8 13h23.1l9.8-30.3-10.8-7.8z"></path><path d="M53.7 39.6l14 10.2-9.5 29.3L75 66.9l7.1-22-25.7-18.6-10.5 7.6z"></path><path d="M81.4 41.9L75 22.2 56.3 8.7 30.8 27.2l4 12.4 21.6-15.8z"></path><path d="M34 42.8l-5.4-16.6L53.2 8H32.5L13.8 21.8 23.5 52h13.2L34 42.8z"></path><path d="M39.4 54H22.1l-9.5-29.1-6.4 19.4L13.4 66h31.5L49 54z"></path></g><!----></svg>