<svg data-v-29081953="" xmlns="http://www.w3.org/2000/svg" viewBox="0 0 300 300"><!----><defs data-v-29081953=""><!----></defs><rect data-v-29081953="" fill="transparent" x="0" y="0" width="300px" height="300px" class="logo-background-square"></rect><!----><defs data-v-29081953=""><linearGradient data-v-29081953="" gradientTransform="rotate(25)" id="0a3ab691-e10b-4f8c-9dde-5df66fae0064" x1="0%" y1="0%" x2="100%" y2="0%"><stop data-v-29081953="" offset="0%" stop-color="#6566CE" stop-opacity="1"></stop><stop data-v-29081953="" offset="100%" stop-color="#DBC1D0" stop-opacity="1"></stop></linearGradient></defs><g data-v-29081953="" id="e57c1a09-da48-4ed9-8ca2-51e1ff2530cf" fill="url(#0a3ab691-e10b-4f8c-9dde-5df66fae0064)" stroke="none" transform="matrix(2.8985506663657796,0,0,2.8985506663657796,22.02898503925017,21.014495346722804)"><path d="M49.8 57.3L46 68.2V68H15.7l16.8 13h23.1l9.8-30.3-10.8-7.8z"></path><path d="M53.7 39.6l14 10.2-9.5 29.3L75 66.9l7.1-22-25.7-18.6-10.5 7.6z"></path><path d="M81.4 41.9L75 22.2 56.3 8.7 30.8 27.2l4 12.4 21.6-15.8z"></path><path d="M34 42.8l-5.4-16.6L53.2 8H32.5L13.8 21.8 23.5 52h13.2L34 42.8z"></path><path d="M39.4 54H22.1l-9.5-29.1-6.4 19.4L13.4 66h31.5L49 54z"></path></g><!----></svg>